<?xml version="1.0" encoding="UTF-8" standalone="no"?>
<!DOCTYPE svg PUBLIC "-//W3C//DTD SVG 1.1//EN" "http://www.w3.org/Graphics/SVG/1.1/DTD/svg11.dtd">
<!-- Created with Vectornator (http://vectornator.io/) -->
<svg stroke-miterlimit="10" style="fill-rule:nonzero;clip-rule:evenodd;stroke-linecap:round;stroke-linejoin:round;" version="1.1" viewBox="0 0 220 220" xml:space="preserve" xmlns="http://www.w3.org/2000/svg" xmlns:xlink="http://www.w3.org/1999/xlink">
<defs/>
<g id="图层-1">
<path d="M68.8777 164.158C66.5305 155.224 71.8707 146.078 80.8053 143.731C89.7399 141.384 98.8856 146.724 101.233 155.658C103.58 164.593 98.2398 173.739 89.3052 176.086C80.3706 178.433 71.2249 173.093 68.8777 164.158Z" fill="#ef8d98" fill-rule="evenodd" opacity="1" stroke="none"/>
<path d="M188.956 75.7898C187.615 70.6843 190.666 65.4582 195.772 64.1169C200.877 62.7757 206.103 65.8272 207.445 70.9327C208.786 76.0382 205.734 81.2643 200.629 82.6056C195.523 83.9468 190.297 80.8953 188.956 75.7898Z" fill="#ef8d98" fill-rule="evenodd" opacity="1" stroke="none"/>
<path d="M88.751 37.8484C57.3177 46.4798 33.7421 74.7314 32.5908 109.024C32.1439 122.335 35.159 134.963 40.777 146.063C48.5412 148.376 57.654 149.693 67.6295 150.002C70.2063 145.469 74.512 141.925 79.9553 140.495C87.9267 138.401 96.0221 141.404 100.817 147.491C106.426 146.536 112.117 145.387 117.9 143.868C146.903 136.249 171.045 123.109 185.35 108.731C183.893 68.9687 151.962 36.541 111.584 35.1854C103.67 34.9198 96.0048 35.8566 88.751 37.8484Z" fill="#ef8d98" fill-rule="evenodd" opacity="1" stroke="none"/>
<path d="M82.2101 183.169C89.7857 186.006 97.926 187.723 106.458 188.009C130.69 188.823 152.619 178.24 167.21 161.117C155.044 167.136 141.283 172.313 126.4 176.223C111.061 180.253 96.1153 182.505 82.2101 183.169Z" fill="#ef8d98" fill-rule="evenodd" opacity="1" stroke="none"/>
<path d="M98.4717 69.9136C134.263 60.5112 167.781 62.0455 186.855 72.1417C187.024 70.5983 187.464 69.1025 188.208 67.7715C165.588 60.706 132.953 60.8553 98.4717 69.9136Z" fill="#ef8d98" fill-rule="evenodd" opacity="1" stroke="none"/>
<path d="M208.437 78.2381C207.035 81.1806 204.515 83.5612 201.115 84.4544C200.858 84.5219 200.612 84.4505 200.354 84.4997C201.238 86.1071 201.984 87.7629 202.45 89.5388C208.821 113.79 172.598 144.322 121.543 157.735C115.943 159.206 110.432 160.304 104.987 161.25C104.534 167.985 100.719 174.057 94.7685 177.368C104.604 176.203 114.802 174.329 125.186 171.601C183.899 156.177 225.515 120.909 218.138 92.8292C216.663 87.2149 213.278 82.3648 208.437 78.2381Z" fill="#ef8d98" fill-rule="evenodd" opacity="1" stroke="none"/>
<path d="M98.4717 69.9136C39.7586 85.3379-1.85765 120.605 5.51917 148.685C10.8256 168.885 40.0981 179.812 77.9324 178.641C72.083 176.414 67.3542 171.525 65.6422 165.008C65.517 164.532 65.5115 164.06 65.4224 163.584C40.0443 161.727 21.4196 152.785 17.5642 138.109C11.1933 113.858 47.4169 83.326 98.4717 69.9136Z" fill="#ef8d98" fill-rule="evenodd" opacity="1" stroke="none"/>
</g>
</svg>
