<?xml version="1.0" encoding="UTF-8" standalone="no"?>
<!DOCTYPE svg PUBLIC "-//W3C//DTD SVG 1.1//EN" "http://www.w3.org/Graphics/SVG/1.1/DTD/svg11.dtd">
<!-- Created with Vectornator (http://vectornator.io/) -->
<svg stroke-miterlimit="10" style="fill-rule:nonzero;clip-rule:evenodd;stroke-linecap:round;stroke-linejoin:round;" version="1.1" viewBox="0 0 220 220" xml:space="preserve" xmlns="http://www.w3.org/2000/svg" xmlns:xlink="http://www.w3.org/1999/xlink">
<defs/>
<g id="图层-1">
<path d="M111.375 39.9688C71.9308 38.645 38.8555 69.5383 37.5312 108.969C36.2071 148.395 67.1138 181.457 106.562 182.781C146.007 184.105 179.051 153.212 180.375 113.781C181.699 74.3555 150.824 41.2927 111.375 39.9688Z" fill="none" fill-rule="evenodd" opacity="1" stroke="#858585" stroke-linecap="round" stroke-linejoin="round" stroke-width="10"/>
<path d="M68.8777 164.106C66.5305 155.174 71.8707 146.032 80.8053 143.686C89.7399 141.339 98.8856 146.678 101.233 155.609C103.58 164.54 98.2398 173.683 89.3052 176.029C80.3706 178.375 71.2249 173.037 68.8777 164.106Z" fill="#858585" fill-rule="evenodd" opacity="1" stroke="none"/>
<path d="M188.956 75.7693C187.615 70.6656 190.666 65.4414 195.772 64.1007C200.877 62.7599 206.103 65.8103 207.445 70.914C208.786 76.0176 205.734 81.2418 200.629 82.5826C195.523 83.9234 190.297 80.8729 188.956 75.7693Z" fill="#858585" fill-rule="evenodd" opacity="1" stroke="none"/>
<path d="M40.8314 93.3349C38.739 94.8622 36.7513 96.4191 34.875 98C19.9941 110.538 11.5795 125.077 15.1562 138.688C18.7355 152.307 33.2387 160.833 52.3438 164.438C71.628 168.076 96.3572 166.877 122.188 160.094C148.02 153.31 170.151 142.205 185.156 129.562C200.037 117.024 208.452 102.485 204.875 88.875C201.296 75.2553 186.793 66.7296 167.688 63.125C165.33 62.6802 162.886 62.3071 160.369 62.0076" fill="none" fill-rule="evenodd" opacity="1" stroke="#858585" stroke-linecap="round" stroke-linejoin="round" stroke-width="5"/>
</g>
</svg>
